<?xml version="1.0" encoding="utf-8"?>
<!-- Generator: Adobe Illustrator 16.0.0, SVG Export Plug-In . SVG Version: 6.00 Build 0)  -->
<!DOCTYPE svg PUBLIC "-//W3C//DTD SVG 1.1//EN" "http://www.w3.org/Graphics/SVG/1.1/DTD/svg11.dtd">
<svg version="1.1" id="Layer_1" xmlns="http://www.w3.org/2000/svg" xmlns:xlink="http://www.w3.org/1999/xlink" x="0px" y="0px"
	 width="1920px" height="165.65px" viewBox="0 0 1920 165.65" enable-background="new 0 0 1920 165.65" xml:space="preserve">
<g>
	<defs>
		<rect id="SVGID_1_" width="1920" height="165.65"/>
	</defs>
	<clipPath id="SVGID_2_">
		<use xlink:href="#SVGID_1_"  overflow="visible"/>
	</clipPath>
	<g clip-path="url(#SVGID_2_)">
		<radialGradient id="SVGID_3_" cx="960" cy="152" r="695.7153" gradientUnits="userSpaceOnUse">
			<stop  offset="0.4" style="stop-color:#555555"/>
			<stop  offset="1" style="stop-color:#333333"/>
		</radialGradient>
		<path fill="url(#SVGID_3_)" stroke="#F89A1D" stroke-width="3" stroke-miterlimit="10" d="M1918.795,78.488
			c-14.465-3.849-37.545-9.083-71.666-14.488c-67.334-10.667-128.334-12-128.334-12l-50.438,52.188
			c0,0-186.525-23.083-708.153-23.096l0,0c-0.068,0-0.136,0-0.205,0s-0.136,0-0.205,0l0,0
			c-521.628,0.012-708.153,23.096-708.153,23.096L201.205,52c0,0-61,1.333-128.333,12C38.75,69.405,15.67,74.64,1.205,78.488
			c-14.08,3.746-20,6.179-20,6.179V252h978.591h0.409h978.59V84.667C1938.795,84.667,1932.875,82.234,1918.795,78.488z"/>
		<path opacity="0.6" fill="none" stroke="#F89A1D" stroke-width="3" stroke-miterlimit="10" d="M1938.795,72.667
			c0,0-5.92-2.433-20-6.179c-14.465-3.849-37.545-9.083-71.666-14.488c-67.334-10.667-136.334-12-136.334-12l-50.438,52.188
			c0,0-178.525-23.083-700.153-23.096l0,0c-0.068,0-0.136,0-0.205,0s-0.136,0-0.205,0l0,0
			c-521.628,0.012-702.153,23.096-702.153,23.096L207.205,40c0,0-67,1.333-134.333,12C38.75,57.405,15.67,62.64,1.205,66.488
			c-14.08,3.746-20,6.179-20,6.179"/>
	</g>
	<path clip-path="url(#SVGID_2_)" fill="none" stroke="#F89A1D" stroke-width="3" stroke-miterlimit="10" d="M959.795,240"/>
</g>
</svg>
