<?xml version="1.0" encoding="utf-8"?>
<!-- Generator: Adobe Illustrator 16.0.0, SVG Export Plug-In . SVG Version: 6.00 Build 0)  -->
<!DOCTYPE svg PUBLIC "-//W3C//DTD SVG 1.1//EN" "http://www.w3.org/Graphics/SVG/1.1/DTD/svg11.dtd">
<svg version="1.1" id="Layer_1" xmlns="http://www.w3.org/2000/svg" xmlns:xlink="http://www.w3.org/1999/xlink" x="0px" y="0px"
	 width="1920px" height="165.65px" viewBox="0 0 1920 165.65" enable-background="new 0 0 1920 165.65" xml:space="preserve">
<g>
	<g>
		<path fill="none" stroke="#F89A1D" stroke-width="3" stroke-miterlimit="10" d="M1251.795,368.906"/>
	</g>
</g>
<g>
	<defs>
		<rect id="SVGID_1_" width="1920" height="165.65"/>
	</defs>
	<clipPath id="SVGID_2_">
		<use xlink:href="#SVGID_1_"  overflow="visible"/>
	</clipPath>
	<g clip-path="url(#SVGID_2_)">
		<g id="Layer_2">
			<g>
				<g>
					<g>
						<g>
							<g>
								<polygon fill="#FF9A00" points="632.458,118.375 595.042,90.542 545.583,89.69 								"/>
							</g>
						</g>
					</g>
				</g>
			</g>
		</g>
		<radialGradient id="SVGID_3_" cx="960" cy="24.4531" r="689.8904" gradientUnits="userSpaceOnUse">
			<stop  offset="0.4" style="stop-color:#555555"/>
			<stop  offset="1" style="stop-color:#333333"/>
		</radialGradient>
		<path fill="url(#SVGID_3_)" stroke="#FF9A00" stroke-width="3" stroke-miterlimit="10" d="M960.045-80h-0.091h-970V40
			c0,0,57.667,14,163,22.667C236.991,69.581,600.392,80,600.392,80l49.562,39c0,0,161.615,9.906,310,9.906h0.091
			c148.384,0,310-9.906,310-9.906l49.562-39c0,0,363.402-10.419,447.438-17.333c105.332-8.667,163-22.667,163-22.667V-80H960.045z"
			/>
		<path opacity="0.6" fill="none" stroke="#F89A1D" stroke-width="3" stroke-miterlimit="10" enable-background="new    " d="
			M-10.045,52c0,0,57.667,14,163,22.667c62.641,5.154,359.991,16.142,359.991,16.142l127.163,41.65c0,0,171.461,9.447,319.846,9.447
			"/>
		<g id="Layer_2_1_">
			<g>
				<g>
					<g>
						<g>
							<g>
								<polygon fill="#FF9A00" points="1374.326,89.69 1324.868,90.542 1287.451,118.375 								"/>
							</g>
						</g>
					</g>
				</g>
			</g>
		</g>
		<path opacity="0.6" fill="none" stroke="#F89A1D" stroke-width="3" stroke-miterlimit="10" enable-background="new    " d="
			M1929.955,52c0,0-57.667,14-163,22.667c-62.641,5.154-359.99,16.142-359.99,16.142l-127.164,41.65
			c0,0-171.461,9.447-319.846,9.447"/>
	</g>
</g>
</svg>
